<svg width="800" height="900" viewBox="0 0 800 900" xmlns="http://www.w3.org/2000/svg">
  <rect width="800" height="900" rx="48" fill="#0d1329"/>
  <circle cx="640" cy="210" r="110" fill="#7c8cff" opacity="0.22"/>
  <circle cx="214" cy="690" r="140" fill="#00d4ff" opacity="0.2"/>
  <rect x="186" y="182" width="430" height="510" rx="40" fill="#121a33" stroke="#2a3563" stroke-width="3"/>
  <circle cx="400" cy="362" r="126" fill="#f2c5a0"/>
  <path d="M278 382c24-112 220-112 244 0v154H278z" fill="#0f172a"/>
  <path d="M279 380c18-86 226-84 244 0" stroke="#0b1020" stroke-width="16" fill="none" stroke-linecap="round"/>
  <circle cx="348" cy="348" r="12" fill="#111827"/>
  <circle cx="452" cy="348" r="12" fill="#111827"/>
  <path d="M334 430c34 34 92 34 126 0" stroke="#b96c50" stroke-width="10" stroke-linecap="round"/>
  <rect x="252" y="556" width="296" height="78" rx="20" fill="#1f2a49"/>
  <rect x="274" y="574" width="110" height="16" rx="8" fill="#7c8cff"/>
  <rect x="274" y="600" width="184" height="12" rx="6" fill="#4b89ff" opacity="0.7"/>
</svg>