<svg width="1200" height="700" viewBox="0 0 1200 700" xmlns="http://www.w3.org/2000/svg">
  <rect width="1200" height="700" rx="36" fill="#0e1427"/>
  <rect x="70" y="80" width="1060" height="540" rx="30" fill="#121b33" stroke="#2a3563" stroke-width="2"/>
  <rect x="110" y="120" width="300" height="200" rx="18" fill="#1c2747"/>
  <rect x="430" y="120" width="300" height="200" rx="18" fill="#1c2747"/>
  <rect x="750" y="120" width="320" height="200" rx="18" fill="#1c2747"/>
  <rect x="110" y="360" width="960" height="220" rx="24" fill="#17203d"/>
  <rect x="150" y="400" width="120" height="120" rx="16" fill="#7c8cff"/>
  <rect x="300" y="400" width="120" height="120" rx="16" fill="#00d4ff"/>
  <rect x="450" y="400" width="120" height="120" rx="16" fill="#8b5cf6"/>
  <rect x="600" y="400" width="120" height="120" rx="16" fill="#4ade80" opacity="0.9"/>
  <rect x="750" y="400" width="120" height="120" rx="16" fill="#f59e0b" opacity="0.9"/>
  <rect x="900" y="400" width="120" height="120" rx="16" fill="#fb7185" opacity="0.9"/>
  <rect x="150" y="150" width="150" height="14" rx="7" fill="#7c8cff"/>
  <rect x="150" y="180" width="210" height="10" rx="5" fill="#5b6d9d"/>
  <rect x="470" y="150" width="180" height="14" rx="7" fill="#00d4ff"/>
  <rect x="470" y="180" width="160" height="10" rx="5" fill="#5b6d9d"/>
  <rect x="790" y="150" width="170" height="14" rx="7" fill="#8b5cf6"/>
  <rect x="790" y="180" width="200" height="10" rx="5" fill="#5b6d9d"/>
</svg>